<svg width="16" height="16" viewBox="0 0 16 16" fill="none" xmlns="http://www.w3.org/2000/svg"><path d="M12.6667 3.66664H8.48001L8.26668 2.99997C8.12838 2.60879 7.87184 2.27031 7.53261 2.03141C7.19338 1.79252 6.78825 1.66504 6.37334 1.66664H3.33334C2.80291 1.66664 2.2942 1.87735 1.91913 2.25243C1.54406 2.6275 1.33334 3.13621 1.33334 3.66664V12.3333C1.33334 12.8637 1.54406 13.3724 1.91913 13.7475C2.2942 14.1226 2.80291 14.3333 3.33334 14.3333H12.6667C13.1971 14.3333 13.7058 14.1226 14.0809 13.7475C14.456 13.3724 14.6667 12.8637 14.6667 12.3333V5.66664C14.6667 5.13621 14.456 4.6275 14.0809 4.25243C13.7058 3.87735 13.1971 3.66664 12.6667 3.66664ZM13.3333 12.3333C13.3333 12.5101 13.2631 12.6797 13.1381 12.8047C13.0131 12.9297 12.8435 13 12.6667 13H3.33334C3.15653 13 2.98696 12.9297 2.86194 12.8047C2.73691 12.6797 2.66668 12.5101 2.66668 12.3333V3.66664C2.66668 3.48983 2.73691 3.32026 2.86194 3.19524C2.98696 3.07021 3.15653 2.99997 3.33334 2.99997H6.37334C6.51311 2.99961 6.64945 3.04319 6.7631 3.12454C6.87674 3.20588 6.96195 3.32089 7.00668 3.45331L7.36668 4.54664C7.4114 4.67906 7.49661 4.79406 7.61026 4.87541C7.72391 4.95676 7.86025 5.00034 8.00001 4.99997H12.6667C12.8435 4.99997 13.0131 5.07021 13.1381 5.19524C13.2631 5.32026 13.3333 5.48983 13.3333 5.66664V12.3333Z" fill="#10B981"></path></svg>