<svg width="14" height="14" viewBox="0 0 14 14" fill="none" xmlns="http://www.w3.org/2000/svg"><path fill-rule="evenodd" clip-rule="evenodd" d="M2.33329 2.91666C2.33329 2.5945 2.59446 2.33333 2.91663 2.33333H11.0833C11.4055 2.33333 11.6666 2.5945 11.6666 2.91666V7.34171L9.74577 5.42085C9.51797 5.19305 9.14862 5.19305 8.92081 5.42085L2.71193 11.6297C2.49073 11.5468 2.33329 11.3335 2.33329 11.0833V2.91666ZM4.32492 11.6667L9.33329 6.65829L11.6666 8.99162V11.0833C11.6666 11.4055 11.4055 11.6667 11.0833 11.6667H4.32492ZM12.8333 8.75106V11.0833C12.8333 12.0498 12.0498 12.8333 11.0833 12.8333H2.91663C1.95013 12.8333 1.16663 12.0498 1.16663 11.0833V2.91666C1.16663 1.95017 1.95013 1.16666 2.91663 1.16666H11.0833C12.0498 1.16666 12.8333 1.95017 12.8333 2.91666V8.74894C12.8333 8.74964 12.8333 8.75035 12.8333 8.75106Z" fill="#10B981"></path><path fill-rule="evenodd" clip-rule="evenodd" d="M4.95833 4.66667C4.79725 4.66667 4.66667 4.79725 4.66667 4.95833C4.66667 5.11942 4.79725 5.25 4.95833 5.25C5.11942 5.25 5.25 5.11942 5.25 4.95833C5.25 4.79725 5.11942 4.66667 4.95833 4.66667ZM3.5 4.95833C3.5 4.15292 4.15292 3.5 4.95833 3.5C5.76375 3.5 6.41667 4.15292 6.41667 4.95833C6.41667 5.76375 5.76375 6.41667 4.95833 6.41667C4.15292 6.41667 3.5 5.76375 3.5 4.95833Z" fill="#10B981"></path></svg>